<?xml version="1.0" encoding="UTF-8" standalone="no"?><!DOCTYPE svg PUBLIC "-//W3C//DTD SVG 1.1//EN" "http://www.w3.org/Graphics/SVG/1.1/DTD/svg11.dtd"><svg width="100%" height="100%" viewBox="0 0 104 106" version="1.1" xmlns="http://www.w3.org/2000/svg" xmlns:xlink="http://www.w3.org/1999/xlink" xml:space="preserve" xmlns:serif="http://www.serif.com/" style="fill-rule:evenodd;clip-rule:evenodd;stroke-linecap:round;stroke-linejoin:round;stroke-miterlimit:1.5;"><rect id="DesktopAppIcon" x="0" y="0" width="103.92" height="105.36"/><g><circle cx="51.097" cy="52.56" r="41.76" style="fill:#00fff8;"/><g><path d="M73.414,42.784c0,0 -21.529,1.882 -21.432,29.99c0,0 18.357,3.7 21.432,-29.99Z" style="fill:none;stroke:#000;stroke-width:2.5px;"/><path d="M29.355,42.208c0,0 22.536,1.884 22.435,29.991c0,0 -19.215,3.699 -22.435,-29.991Z" style="fill:none;stroke:#000;stroke-width:2.5px;"/><path d="M65.288,38.238c0,0 -3.975,1.982 -9.518,8.243c-4.631,5.231 -10.356,13.45 -15.771,25.997c0,0 21.662,9.262 25.289,-34.24Z" style="fill:none;stroke:#000;stroke-width:2.5px;"/><path d="M37.309,37.475c0,0 13.387,7.298 25.289,36.064c0,0 -3.448,1.377 -7.822,0.206c-6.606,-1.769 -15.324,-9.351 -17.467,-36.27Z" style="fill:none;stroke:#000;stroke-width:2.5px;"/></g></g></svg>